HIERARCHY
ROOT Hips
{
	OFFSET 0.00000 0.00000 0.00000
	CHANNELS 6 Xposition Yposition Zposition Yrotation Zrotation Xrotation 
	JOINT Lumbar
	{
		OFFSET 0 0 0
		CHANNELS 3 Zrotation Xrotation Yrotation
		JOINT Neck
		{
			OFFSET 0.00 0.2701 0.00
			CHANNELS 3 Zrotation Xrotation Yrotation
			End Site
			{
				OFFSET 0.00 0.1379 0.00
			}
		}
		JOINT RightShoulder
		{
			OFFSET 0.0119 0.2289 0.1181
			CHANNELS 3 Zrotation Xrotation Yrotation
			JOINT RightElbow
			{
				OFFSET 0.00 -0.1475 0.00
				CHANNELS 2 Zrotation Yrotation
				JOINT RightWrist
				{
					OFFSET 0.00 -0.1605 0.00
					CHANNELS 2 Zrotation Xrotation
					End Site
					{
						OFFSET 0.0040 -0.1068 0.0006
					}
				}
			}
		}
		JOINT LeftShoulder
		{
			OFFSET 0.0119 0.2289 -0.1181
			CHANNELS 3 Zrotation Xrotation Yrotation
			JOINT LeftElbow
			{
				OFFSET 0.00 -0.1475 0.00
				CHANNELS 2 Zrotation Yrotation
				JOINT LeftWrist
				{
					OFFSET 0.00 -0.1605 0.00
					CHANNELS 2 Zrotation Xrotation
					End Site
					{
						OFFSET 0.0040 -0.1068 -0.0006
					}
				}
			}
		}
	}
	JOINT RightHip
	{
		OFFSET 0.0316 -0.0424 0.0458
		CHANNELS 3 Zrotation Xrotation Yrotation
		JOINT RightKnee
		{
			OFFSET 0.00 -0.2438 0.00
			CHANNELS 1 Zrotation
			JOINT RightAnkle
			{
				OFFSET 0.00 -0.2449 0.00
				CHANNELS 3 Zrotation Xrotation Yrotation
				End Site
				{
					OFFSET 0.1237 -0.0542 0.0051
				}
			}
		}
	}
	JOINT LeftHip
	{
		OFFSET 0.0316 -0.0424 -0.0458
		CHANNELS 3 Zrotation Xrotation Yrotation
		JOINT LeftKnee
		{
			OFFSET 0.00 -0.2438 0.00
			CHANNELS 1 Zrotation
			JOINT LeftAnkle
			{
				OFFSET 0.00 -0.2449 0.00
				CHANNELS 3 Zrotation Xrotation Yrotation
				End Site
				{
					OFFSET 0.1237 -0.0542 -0.0051
				}
			}
		}
	}
}
MOTION
Frames: 16
Frame Time: 0.02
0.0337 0.00254 -0.13463 16.97887 -32.37657 1.2866 47.57082 -2.26843 5.11444 -3.76569 -3.27185 -0.83079 169.88167 -110.54787 -90.0114 137.50547 93.25524 -78.43413 -5.78398 27.96514 65.17681 -60.48343 121.63132 -99.96345 26.93677 1.39146 59.96447 -10.80256 -7.00566 -37.61521 -9.07896 -5.05806 -3.46205 51.71729 1.02143 9.16231 -27.67266 -7.20532 4.15754 2.89086
0.0347 0.00348 -0.13024 16.47932 -32.44254 0.77313 47.15954 -1.98064 5.64455 -2.48002 -3.07326 -0.83079 169.88212 -113.87149 -90.01178 137.70895 94.06966 -78.42309 -5.73234 32.58832 62.32304 -60.67461 119.92323 -102.06372 27.8147 1.07332 59.22648 -9.85855 -7.32446 -36.27534 -8.85945 -4.94896 -3.38756 51.99187 1.87576 8.39121 -27.83759 -7.38251 4.19584 2.91723
0.03568 0.00441 -0.12567 15.97248 -32.51686 0.25496 46.70225 -1.68509 6.20173 -0.97228 -2.84807 -0.83079 169.88195 -118.13936 -90.01162 137.59363 94.90409 -78.13277 -5.60631 36.87572 58.62966 -60.96607 117.45742 -102.44272 28.05565 1.08281 58.51522 -8.78254 -7.40802 -34.88282 -8.69446 -4.84883 -3.32222 52.27946 2.80667 7.74817 -28.00333 -7.56549 4.20006 2.92294
0.03667 0.00534 -0.1212 15.47743 -32.58256 -0.24929 46.27131 -1.39893 6.73387 0.40953 -2.64001 -0.83079 169.88198 -121.9903 -90.01169 137.62451 95.67084 -77.99304 -5.49032 41.25388 55.31237 -61.19954 115.25184 -103.61212 28.50714 0.92814 57.79728 -7.77339 -7.56244 -33.53139 -8.51083 -4.7499 -3.25594 52.55115 3.69168 7.06198 -28.16215 -7.74337 4.21969 2.93806
0.03766 0.00632 -0.11665 14.94581 -32.66785 -0.80483 45.81469 -1.08771 7.32123 1.90141 -2.40985 -0.83079 169.88197 -125.81818 -90.01162 137.63275 96.72672 -77.76936 -5.46257 45.90898 51.99303 -61.47247 113.40171 -104.89341 29.26314 0.82285 57.05346 -6.73423 -7.87182 -32.10082 -8.30194 -4.62876 -3.17609 52.86517 4.62575 6.30715 -28.34817 -7.93208 4.24033 2.95347
0.03865 0.00719 -0.11224 14.48873 -32.71478 -1.25395 45.40192 -0.82701 7.79971 3.21514 -2.2199 -0.83079 169.88193 -129.89173 -90.0116 137.61812 97.16383 -77.64701 -5.25656 49.90475 48.49029 -61.69058 110.6212 -105.47411 29.24767 0.70159 56.37117 -5.72852 -7.8101 -30.82507 -8.15772 -4.55529 -3.12626 53.09499 5.47337 5.72185 -28.4792 -8.10004 4.25113 2.9636
0.03964 0.00775 -0.1083 14.24188 -32.65144 -1.40935 45.11869 -0.70688 7.96745 3.98059 -2.14536 -0.83079 169.88217 -134.58381 -90.012 137.62706 95.96049 -77.88468 -4.33994 52.11958 44.66738 -61.75223 105.58478 -104.57463 27.22079 0.41456 55.84981 -4.82394 -6.67414 -29.99163 -8.1869 -4.61978 -3.16213 53.078 6.08364 5.64739 -28.44325 -8.20201 4.23516 2.95953
0.04063 0.00819 -0.10453 14.06995 -32.54961 -1.45713 44.88212 -0.63792 8.02498 4.55837 -2.1127 -0.83079 169.88152 -139.44131 -90.01085 137.62352 94.12125 -78.22868 -3.28404 53.6873 40.70017 -61.75504 99.62025 -103.00526 24.45081 0.10886 55.39033 -3.96175 -5.19052 -29.31692 -8.27782 -4.73047 -3.22703 52.97806 6.6008 5.72856 -28.35534 -8.284 4.21159 2.95153
0.04162 0.00868 -0.10068 13.86211 -32.46713 -1.553 44.62634 -0.54627 8.13511 5.22327 -2.06234 -0.83079 169.88243 -144.12937 -90.0125 137.62435 92.51219 -78.51536 -2.45248 55.57665 36.80917 -61.77242 93.99289 -101.69722 22.04787 -0.15866 54.90439 -3.09551 -3.93512 -28.56868 -8.3351 -4.81448 -3.27538 52.92279 7.14695 5.68956 -28.29987 -8.37989 4.1967 2.94842
0.04264 0.00921 -0.09682 13.66183 -32.37753 -1.65216 44.36027 -0.45245 8.236 5.89004 -2.00539 -0.83079 169.88223 -149.31329 -90.01214 137.625 91.12713 -78.83456 -0.96042 57.33946 32.82522 -61.83894 88.67827 -100.50382 19.4951 -0.53773 54.41204 -2.16075 -2.37737 -27.82243 -8.41765 -4.92267 -3.33815 52.83722 7.75064 5.85695 -28.20398 -8.45608 4.15925 2.93191
0.04358 0.00961 -0.09304 13.46371 -32.29296 -1.71929 44.1276 -0.37477 8.32911 6.50322 -1.97249 -0.83079 169.87935 -153.41012 -90.00698 137.62001 89.15626 -79.10984 -0.78457 59.21505 29.03466 -61.79477 82.52416 -98.94689 17.09045 -0.69637 53.94772 -1.38013 -1.3672 -27.11285 -8.46174 -4.99149 -3.37773 52.79657 8.21311 5.63806 -28.18392 -8.56795 4.16657 2.94216
0.04431 0.00966 -0.08943 13.25331 -32.23669 -1.72028 43.97427 -0.3346 8.43153 7.03114 -1.99556 -0.83079 169.88796 -155.16686 -90.02243 137.63314 85.4397 -79.26 -4.50973 61.57193 25.62351 -61.39872 74.09305 -96.44756 15.24517 -0.21444 53.54333 -1.01886 -1.97766 -26.4458 -8.38242 -4.93922 -3.34555 52.88596 8.2926 4.24386 -28.35143 -8.78796 4.30693 3.03166
0.04496 0.00956 -0.08591 13.04255 -32.18601 -1.69343 43.85392 -0.30795 8.529 7.50679 -2.04147 -0.83079 169.8749 -155.69728 -89.99895 137.61366 81.20409 -79.34461 -9.5191 64.06327 22.45315 -60.903 64.8897 -93.6344 13.58377 0.48347 53.16549 -0.81131 -3.14798 -25.81429 -8.26241 -4.84591 -3.28911 53.02618 8.23549 2.46841 -28.60313 -9.04377 4.49145 3.14758
0.04565 0.00952 -0.08237 12.83187 -32.12922 -1.68197 43.71913 -0.27148 8.62615 7.99494 -2.07733 -0.83079 169.87921 -156.31201 -90.00679 137.62023 77.39724 -79.46497 -13.7912 66.48821 19.29961 -60.49369 56.16315 -91.03839 11.86209 1.06269 52.77673 -0.53117 -4.04767 -25.1797 -8.16208 -4.77207 -3.24414 53.15222 8.25119 0.91279 -28.83933 -9.27988 4.65088 3.24856
0.04634 0.00953 -0.07875 12.624 -32.08542 -1.65532 43.5818 -0.25213 8.73057 8.52648 -2.11368 -0.83079 169.91545 -158.89174 -90.0716 137.67431 72.77114 -79.62488 -18.71596 68.91622 15.60166 -59.91359 46.86413 -88.09695 10.01569 1.7273 52.3847 -0.2633 -5.00337 -24.49498 -8.05879 -4.69635 -3.19829 53.23706 8.21937 -0.83515 -28.97902 -9.52926 4.83088 3.36154
0.04702 0.00939 -0.07533 12.40942 -32.01733 -1.65495 43.45928 -0.19989 8.81978 8.9548 -2.15334 -0.83079 169.80013 -157.13321 -89.86482 137.50205 69.71488 -79.60876 -22.57699 71.37385 13.10409 -59.66032 38.59666 -85.81737 8.48257 2.26664 52.00572 -0.00667 -5.98005 -23.92161 -7.95135 -4.61423 -3.14815 53.42169 8.25405 -2.27356 -29.33866 -9.76043 4.97904 3.45615
